<svg width="25" height="25" viewBox="0 0 25 25" fill="none" xmlns="http://www.w3.org/2000/svg">
<g id="Home">
<path id="Vector" d="M5.24545 22.9166C4.59069 22.9166 4.03037 22.6837 3.5645 22.2178C3.09784 21.7512 2.8645 21.1905 2.8645 20.5357V9.82141C2.8645 9.44442 2.94903 9.08728 3.11807 8.74998C3.28633 8.41268 3.51926 8.1349 3.81688 7.91665L10.9597 2.5595C11.178 2.40077 11.4062 2.28173 11.6443 2.20236C11.8824 2.123 12.1304 2.08331 12.3883 2.08331C12.6462 2.08331 12.8943 2.123 13.1324 2.20236C13.3705 2.28173 13.5986 2.40077 13.8169 2.5595L20.9597 7.91665C21.2574 8.1349 21.4907 8.41268 21.6597 8.74998C21.828 9.08728 21.9121 9.44442 21.9121 9.82141V20.5357C21.9121 21.1905 21.6792 21.7512 21.2133 22.2178C20.7466 22.6837 20.1859 22.9166 19.5312 22.9166H14.7693V14.5833H10.0074V22.9166H5.24545Z" fill="white"/>
</g>
</svg>
