<svg width="398" height="72" viewBox="0 0 398 72" fill="none" xmlns="http://www.w3.org/2000/svg">
<path d="M0.16 71V3.8H13.6V71H0.16ZM55.7028 15.32V71H42.2628V15.32H24.1188V3.8H73.8468V15.32H55.7028ZM109.379 36.92V9.752L120.515 3.32H144.803L155.939 9.752V22.52H142.499V14.84H122.819V30.872H144.803L155.939 37.304V65.048L144.803 71.48H119.555L108.419 65.048V52.28H121.859V59.96H142.499V43.352H120.515L109.379 36.92ZM167.485 34.232V23H176.317V14.936L189.469 7.352V23H200.029V34.232H189.469V59.768H200.029V71H187.453L176.317 64.568V34.232H167.485ZM212.481 65.048V23H225.633V60.248H242.049V23H255.201V71.48H244.353L242.049 67.544L235.233 71.48H223.617L212.481 65.048ZM280.711 22.52H293.287L300.103 26.456V0.919998H313.255V71.48H302.407L300.103 67.544L293.287 71.48H280.711L269.575 65.048V28.952L280.711 22.52ZM300.103 60.248V33.752H282.727V60.248H300.103ZM340.852 23V71H327.7V23H340.852ZM327.22 14.072V0.919998H341.332V14.072H327.22ZM397.983 65.048L386.847 71.48H366.399L355.263 65.048V28.952L366.399 22.52H386.847L397.983 28.952V65.048ZM368.415 33.752V60.248H384.831V33.752H368.415Z" fill="white"/>
</svg>
